<svg width="33" height="33" viewBox="0 0 33 33" fill="none" xmlns="http://www.w3.org/2000/svg">
<path d="M30.7835 16.4835C29.7427 16.4928 28.8681 17.2681 28.7341 18.3003C27.7425 25.0755 21.4463 29.764 14.6711 28.7724C7.89591 27.7808 3.2074 21.4845 4.19902 14.7093C5.19065 7.93415 11.4869 3.24564 18.2621 4.23726C20.5715 4.57527 22.7387 5.55831 24.5142 7.07336L22.9589 8.62867C22.4215 9.16623 22.4216 10.0377 22.9592 10.5751C23.2182 10.8341 23.5698 10.9792 23.9361 10.9781H30.2481C31.0082 10.9781 31.6244 10.3619 31.6244 9.60178V3.28977C31.6242 2.52963 31.0079 1.91356 30.2478 1.91369C29.8829 1.91375 29.533 2.05872 29.275 2.31666L27.4417 4.14997C20.621 -1.89294 10.193 -1.26248 4.14999 5.55825C-1.89298 12.379 -1.26239 22.807 5.55827 28.85C12.3789 34.893 22.807 34.2625 28.85 27.4417C30.9772 25.0407 32.3584 22.0715 32.8246 18.8977C33.0071 17.7614 32.2339 16.6923 31.0976 16.5099C30.9937 16.4932 30.8888 16.4844 30.7835 16.4835Z" fill="white"/>
</svg>
