<svg width="23" height="22" viewBox="0 0 23 22" fill="none" xmlns="http://www.w3.org/2000/svg">
<path d="M20.55 5.21773V1.82577C20.55 1.32299 20.1325 0.914936 19.6159 0.914936C19.0994 0.914936 18.6818 1.32299 18.6818 1.82577V3.98081L13.8217 0.782864C12.2347 -0.260955 10.1835 -0.260955 8.59644 0.782864L2.0578 5.08566C0.769691 5.93365 0 7.34453 0 8.86108V17.31C0 19.8212 2.09517 21.8642 4.67046 21.8642H6.53864C7.05519 21.8642 7.47273 21.4561 7.47273 20.9533V12.7558C7.47273 12.2539 7.8912 11.845 8.40682 11.845H14.0114C14.527 11.845 14.9455 12.2539 14.9455 12.7558V20.9533C14.9455 21.4561 15.363 21.8642 15.8795 21.8642H17.7477C20.323 21.8642 22.4182 19.8212 22.4182 17.31V8.86108C22.4182 7.42104 21.7232 6.07574 20.55 5.21773Z" fill="white"/>
</svg>
